<svg xmlns="http://www.w3.org/2000/svg" 
xmlns:xlink="http://www.w3.org/1999/xlink" 
version="1.1" width="226" height="47" 
viewBox="0 0 226 47" xml:space="preserve">

<g transform="matrix(1 0 0 1 112.69 23.06)"  >
<path style="stroke: none; stroke-width: 1; stroke-dasharray: none; stroke-linecap: butt; stroke-dashoffset: 0; stroke-linejoin: miter; stroke-miterlimit: 4; fill: rgb(237,195,2); fill-rule: nonzero; opacity: 1;"  transform=" translate(-115.39, 22.3)" d="M 25.54 0.26 L 25.54 0.26 L 25.54 0.26 Q 13.57 0.26 7.81 -6.53 L 7.81 -6.53 L 7.81 -6.53 Q 5.76 -8.96 4.48 -12.99 L 4.48 -12.99 L 4.48 -12.99 Q 3.2 -17.02 3.2 -22.78 L 3.2 -22.78 L 3.2 -22.78 Q 3.2 -28.54 5.09 -33.12 L 5.09 -33.12 L 5.09 -33.12 Q 6.98 -37.7 10.24 -40.19 L 10.24 -40.19 L 10.24 -40.19 Q 16.58 -44.86 25.54 -44.86 L 25.54 -44.86 L 25.54 -44.86 Q 28.1 -44.86 30.53 -44.45 L 30.53 -44.45 L 30.53 -44.45 Q 32.96 -44.03 34.18 -43.58 L 34.18 -43.58 L 35.33 -43.14 L 35.14 -42.5 L 35.14 -42.5 Q 30.78 -44.22 25.54 -44.22 L 25.54 -44.22 L 25.54 -44.22 Q 18.75 -44.22 14.21 -39.81 L 14.21 -39.81 L 14.21 -39.81 Q 10.75 -36.54 9.34 -30.21 L 9.34 -30.21 L 9.34 -30.21 Q 8.51 -26.62 8.51 -21.44 L 8.51 -21.44 L 8.51 -21.44 Q 8.51 -16.26 9.98 -11.87 L 9.98 -11.87 L 9.98 -11.87 Q 11.46 -7.49 13.34 -5.38 L 13.34 -5.38 L 13.34 -5.38 Q 15.23 -3.26 17.92 -2.02 L 17.92 -2.02 L 17.92 -2.02 Q 20.61 -0.77 22.21 -0.58 L 22.21 -0.58 L 22.21 -0.58 Q 23.81 -0.38 26.08 -0.38 L 26.08 -0.38 L 26.08 -0.38 Q 28.35 -0.38 31.23 -0.83 L 31.23 -0.83 L 31.23 -0.83 Q 34.11 -1.28 35.58 -1.66 L 35.58 -1.66 L 37.06 -2.11 L 37.25 -1.47 L 37.25 -1.47 Q 32.38 0.26 25.54 0.26 Z M 48 -23.55 L 48 0 L 42.69 0 L 42.69 -44.8 L 48 -44.8 L 48 -24.19 L 68.8 -24.19 L 68.8 -44.8 L 74.11 -44.8 L 74.11 0 L 68.8 0 L 68.8 -23.55 L 48 -23.55 Z M 112.58 -19.26 L 112.58 -44.8 L 113.41 -44.8 L 113.41 -19.2 L 113.41 -19.2 Q 113.41 -9.15 109.44 -4.45 L 109.44 -4.45 L 109.44 -4.45 Q 105.47 0.26 99.07 0.26 L 99.07 0.26 L 99.07 0.26 Q 95.04 0.26 92.22 -0.48 L 92.22 -0.48 L 92.22 -0.48 Q 89.41 -1.22 86.91 -3.2 L 86.91 -3.2 L 86.91 -3.2 Q 81.79 -7.17 81.79 -19.2 L 81.79 -19.2 L 81.79 -44.8 L 87.1 -44.8 L 87.1 -19.26 L 87.1 -19.26 Q 87.1 -7.62 90.62 -3.71 L 90.62 -3.71 L 90.62 -3.71 Q 92.42 -1.79 94.37 -1.09 L 94.37 -1.09 L 94.37 -1.09 Q 96.32 -0.38 99.07 -0.38 L 99.07 -0.38 L 99.07 -0.38 Q 105.22 -0.38 108.9 -4.9 L 108.9 -4.9 L 108.9 -4.9 Q 112.58 -9.41 112.58 -19.26 L 112.58 -19.26 Z M 121.41 0 L 121.41 -44.29 L 121.41 -44.29 Q 128.83 -44.8 134.53 -44.8 L 134.53 -44.8 L 134.53 -44.8 Q 150.34 -44.8 150.34 -34.24 L 150.34 -34.24 L 150.34 -34.24 Q 150.34 -29.76 148.16 -26.24 L 148.16 -26.24 L 148.16 -26.24 Q 145.98 -22.72 140.67 -21.57 L 140.67 -21.57 L 153.47 0 L 147.52 0 L 134.98 -21.18 L 126.72 -21.18 L 126.72 0 L 121.41 0 Z M 134.53 -44.16 L 134.53 -44.16 L 134.53 -44.16 Q 130.82 -44.16 126.72 -43.71 L 126.72 -43.71 L 126.72 -21.82 L 136.19 -21.82 L 136.19 -21.82 Q 145.22 -22.21 145.22 -34.11 L 145.22 -34.11 L 145.22 -34.11 Q 145.22 -38.98 142.53 -41.57 L 142.53 -41.57 L 142.53 -41.57 Q 139.84 -44.16 134.53 -44.16 Z M 179.01 0.26 L 179.01 0.26 L 179.01 0.26 Q 167.04 0.26 161.28 -6.53 L 161.28 -6.53 L 161.28 -6.53 Q 159.23 -8.96 157.95 -12.99 L 157.95 -12.99 L 157.95 -12.99 Q 156.67 -17.02 156.67 -22.78 L 156.67 -22.78 L 156.67 -22.78 Q 156.67 -28.54 158.56 -33.12 L 158.56 -33.12 L 158.56 -33.12 Q 160.45 -37.7 163.71 -40.19 L 163.71 -40.19 L 163.71 -40.19 Q 170.05 -44.86 179.01 -44.86 L 179.01 -44.86 L 179.01 -44.86 Q 181.57 -44.86 184 -44.45 L 184 -44.45 L 184 -44.45 Q 186.43 -44.03 187.65 -43.58 L 187.65 -43.58 L 188.8 -43.14 L 188.61 -42.5 L 188.61 -42.5 Q 184.26 -44.22 179.01 -44.22 L 179.01 -44.22 L 179.01 -44.22 Q 172.22 -44.22 167.68 -39.81 L 167.68 -39.81 L 167.68 -39.81 Q 164.22 -36.54 162.82 -30.21 L 162.82 -30.21 L 162.82 -30.21 Q 161.98 -26.62 161.98 -21.44 L 161.98 -21.44 L 161.98 -21.44 Q 161.98 -16.26 163.46 -11.87 L 163.46 -11.87 L 163.46 -11.87 Q 164.93 -7.49 166.82 -5.38 L 166.82 -5.38 L 166.82 -5.38 Q 168.7 -3.26 171.39 -2.02 L 171.39 -2.02 L 171.39 -2.02 Q 174.08 -0.77 175.68 -0.58 L 175.68 -0.58 L 175.68 -0.58 Q 177.28 -0.38 179.55 -0.38 L 179.55 -0.38 L 179.55 -0.38 Q 181.82 -0.38 184.7 -0.83 L 184.7 -0.83 L 184.7 -0.83 Q 187.58 -1.28 189.06 -1.66 L 189.06 -1.66 L 190.53 -2.11 L 190.72 -1.47 L 190.72 -1.47 Q 185.86 0.26 179.01 0.26 Z M 201.47 -23.55 L 201.47 0 L 196.16 0 L 196.16 -44.8 L 201.47 -44.8 L 201.47 -24.19 L 222.27 -24.19 L 222.27 -44.8 L 227.58 -44.8 L 227.58 0 L 222.27 0 L 222.27 -23.55 L 201.47 -23.55 Z" stroke-linecap="round" />
</g>
</svg>