<svg xmlns="http://www.w3.org/2000/svg" viewBox="0 0 45.99 89.08"><style>.st0,.st1{fill:none;stroke:#edc302;stroke-width:1.7816;stroke-miterlimit:30}.st1{stroke-linecap:round}</style><path class="st0" d="M36.76 88.19H9.23c-4.61 0-8.34-3.74-8.34-8.34V9.23C.89 4.62 4.63.89 9.23.89h27.53c4.61 0 8.34 3.74 8.34 8.34v70.61c0 4.61-3.73 8.35-8.34 8.35z"/><path class="st0" d="M38.42 75.71H7.58c-1.92 0-3.47-1.56-3.47-3.47v-55.4c0-1.92 1.56-3.47 3.47-3.47h30.84c1.92 0 3.47 1.56 3.47 3.47v55.4c0 1.92-1.55 3.47-3.47 3.47z"/><path class="st1" d="M17.03 6.09h11.93"/><circle class="st1" cx="23" cy="81.51" r="3.25"/><path d="M15.12 39.64l15.76-15.76M10.97 54.2l24.06-24.06" stroke-width=".891" stroke-linecap="round" fill="none" stroke="#edc302" stroke-miterlimit="30"/></svg>