<svg xmlns="http://www.w3.org/2000/svg" viewBox="0 0 100 100"><path d="M33.1 64.1h-12c-5.9 0-10.6-4.8-10.6-10.6v-6.7c0-5.9 4.8-10.6 10.6-10.6h14c7.1 0 12.2 6.8 10.2 13.6l-2 6.7c-1.3 4.5-5.5 7.6-10.2 7.6zM10.5 49.8H7.8c-1.5 0-2.7-1.2-2.7-2.7 0-1.5 1.2-2.7 2.7-2.7h2.7v5.4zm56.9 14.3h12c5.9 0 10.6-4.8 10.6-10.6v-6.7c0-5.9-4.8-10.6-10.6-10.6h-14c-7.1 0-12.2 6.8-10.2 13.6l2 6.7c1.4 4.5 5.5 7.6 10.2 7.6zM90 49.8h2.7c1.5 0 2.7-1.2 2.7-2.7 0-1.5-1.2-2.7-2.7-2.7H90v5.4zM41.5 38.4h16.9m-13 6h9.5" fill="none" stroke="#edc302" stroke-linecap="round" stroke-miterlimit="30" stroke-width="2"/><path d="M20.4 51.7l5.6-5.5m-2.9 8.7l10-10m33 6.8l5.6-5.5m-2.9 8.7l10-10" fill="none" stroke="#edc302" stroke-linecap="round" stroke-miterlimit="30"/></svg>