<svg xmlns="http://www.w3.org/2000/svg" viewBox="0 0 64.74 80.26"><style>.st0{fill:none;stroke:#edc302;stroke-width:1.7912;stroke-linecap:round;stroke-miterlimit:30}</style><path class="st0" d="M63.46 8.14l-6.81-6.87c-10.36 10.3-24.28 0-24.28 0s-13.92 10.3-24.28 0L1.28 8.14s9.23 8.73 3.83 23.03c-5.39 14.3-4.05 29.94 9.68 37.22 13.74 7.28 17.58 10.68 17.58 10.68s3.84-3.41 17.58-10.68c13.74-7.28 15.07-22.92 9.68-37.22-5.4-14.3 3.83-23.03 3.83-23.03z"/><path d="M32.37 75.7c-2.32-1.66-7.2-4.85-16.32-9.68-13.03-6.91-12.9-22.04-8.43-33.9 4.43-11.74.02-20.14-2.71-23.83l3.31-3.34c3.14 2.38 6.75 3.59 10.76 3.59h0c5.78 0 10.89-2.56 13.38-4.06 2.49 1.5 7.6 4.06 13.38 4.06 4.02 0 7.62-1.21 10.76-3.59l3.31 3.34c-2.73 3.7-7.14 12.09-2.71 23.83 4.47 11.86 4.61 26.99-8.43 33.9-9.09 4.83-13.98 8.02-16.3 9.68z" fill="none" stroke="#edc302" stroke-width=".896" stroke-linecap="round" stroke-miterlimit="30"/><path class="st0" d="M32.37 22.42l4.64 9.4 10.37 1.5-7.5 7.32 1.77 10.33-9.28-4.88-9.28 4.88 1.78-10.33-7.51-7.32 10.37-1.5zm-10.75-8.87h21.5m-21.5 47.49h21.5m-16.98-3.58H38.6M26.14 16.83H38.6"/></svg>