<svg version="1.1" id="Layer_1" xmlns="http://www.w3.org/2000/svg" x="0" y="0" viewBox="0 0 100 100"><style>.st0{fill:none;stroke:#edc302;stroke-width:2.4667;stroke-miterlimit:30}</style><path class="st0" d="M91.8 63.4h-83c-1.8 0-3.2-1.4-3.2-3.2v-2.8H95v2.8c0 1.8-1.4 3.2-3.2 3.2zM80 69.5H21.7c-1.8 0-3.2-1.4-3.2-3.2v-2.8h64.8v2.8c-.1 1.7-1.5 3.2-3.3 3.2z"/><path d="M14.1 57.4C14.1 37.3 30.3 21 50.4 21s36.3 16.3 36.3 36.3" fill="none" stroke="#edc302" stroke-width="2.174" stroke-miterlimit="30"/><circle class="st0" cx="50.5" cy="17.1" r="3.8"/><path d="M7.9 48.3h-.7c-.9 0-1.6.7-1.6 1.6v7.4h3.9v-7.4c0-.9-.7-1.6-1.6-1.6zm85.5 0h-.7c-.9 0-1.6.7-1.6 1.6v7.4H95v-7.4c0-.9-.7-1.6-1.6-1.6z" stroke-width="2.524" fill="none" stroke="#edc302" stroke-miterlimit="30"/><path d="M33.6 37.1c1.7-1.4 3.6-2.6 5.6-3.6.6-.3.9-1.1.5-1.7l-1.6-2.7c-.3-.5-1-.7-1.5-.5-2.6 1.3-5.1 2.9-7.2 4.8-.6.5-.5 1.4.2 1.9l2.7 1.8c.3.4.9.3 1.3 0zm-6.5-.1l3.5 2.2" stroke-width="1.233" stroke-linecap="round" fill="none" stroke="#edc302" stroke-miterlimit="30"/></svg>