<svg xmlns="http://www.w3.org/2000/svg" viewBox="0 0 54.44 40.76"><style>.st0{stroke-width:2;fill:none;stroke:#edc302;stroke-linecap:round;stroke-miterlimit:30}</style><path class="st0" d="M49.42 12.22H3.54c-.79 0-1.37-.79-1.08-1.58l3.31-8.77c.22-.51.72-.87 1.22-.87h42.42c.72 0 1.37.58 1.37 1.37v8.56c0 .71-.57 1.29-1.36 1.29z"/><path class="st0" d="M47.33 12.22v1.65c0 .72-.58 1.37-1.37 1.37H5.63l-2.16-2.95"/><path class="st0" d="M2.17 38.32l11.29 1.44c.72.07 1.44-.43 1.51-1.15l2.73-23.37H5.55l-4.53 21.5c-.14.72.36 1.51 1.15 1.58zm50.12-27.76h-1.51V2.51h1.51c.65 0 1.15.5 1.15 1.15v5.82c0 .58-.5 1.08-1.15 1.08zM5.27 2.51l-1.94 5.9-1.37-4.82c-.07-.36-.07-.79.14-1.08l.36-.65c.51-.79 1.66-.86 2.16-.14l.65.79zM17.2 22h7.26c.65 0 1.22-.5 1.29-1.15l.72-5.18"/><path d="M10.73 1.22v3.59m2.02-3.59v3.59m2.08-3.59v3.59m2.09-3.59v3.59M19 1.22v3.59m2.09-3.59v3.59M9.51 17.61h3.81c.86 0 1.51.72 1.44 1.51l-2.23 15.82c-.07.72-.79 1.22-1.58 1.15l-5.03-.5c-.87-.08-1.44-.79-1.23-1.59l3.38-15.32c.15-.64.72-1.07 1.44-1.07zM50.78 4.09H28.92m-8.48 11.08l-.14 1.08c-.14 1.15.14 2.37.79 3.38" fill="none" stroke="#edc302" stroke-linecap="round" stroke-miterlimit="30"/></svg>